<svg xmlns="http://www.w3.org/2000/svg" xmlns:xlink="http://www.w3.org/1999/xlink" version="1.1" x="0px" y="0px" viewBox="0 0 32 40" enable-background="new 0 0 32 32" xml:space="preserve"><g><g><polygon points="15.5,26.1 15.75,26.1 15.75,25.6 15.75,14.9 15.75,14.4 15.5,14.4 12.8,14.4 12.6,14.4 12.1,14.4 11.73,14.77     8.2,18.3 8.48,18.72 9.7,20.56 9.98,20.98 13.07,25.6 13.4,26.1 14,26.1   "/><polygon points="22.3,20.56 23.52,18.72 23.8,18.3 20.27,14.77 19.9,14.4 19.4,14.4 19.2,14.4 16.5,14.4 16.25,14.4 16.25,14.9     16.25,25.6 16.25,26.1 16.5,26.1 18,26.1 18.6,26.1 18.93,25.6 22.02,20.98   "/><polygon points="14.33,26.6 13.73,26.6 16,30 18.27,26.6 17.67,26.6   "/><polygon points="20.74,14.54 23.49,17.29 23.92,17.72 24.98,12.42 25.1,11.8 20.37,14.16   "/><polygon points="24.32,11.63 24.78,11.4 19.9,5.3 19.9,13.84 20.4,13.59   "/><polygon points="11.6,13.59 12.1,13.84 12.1,5.3 7.22,11.4 7.68,11.63   "/><polygon points="8.08,17.72 8.51,17.29 11.26,14.54 11.63,14.16 6.9,11.8 7.02,12.42   "/><polygon points="12.46,25.6 9.8,21.61 9.52,21.18 4.79,23.28 4.3,23.5 6.9,26.1 7.5,26.1 12.8,26.1 12.47,25.6   "/><polygon points="27.21,23.28 22.48,21.18 22.2,21.61 20.97,23.44 19.53,25.6 19.2,26.1 24.5,26.1 25.1,26.1 27.7,23.5   "/><polygon points="6.26,26.16 4.8,24.71 4.3,24.21 4.3,30 6.62,26.53 6.26,26.17   "/><polygon points="25.74,26.16 25.74,26.17 25.38,26.53 27.7,30 27.7,24.21 27.2,24.71   "/></g></g><text x="0" y="47" fill="#000000" font-size="5px" font-weight="bold" font-family="'Helvetica Neue', Helvetica, Arial-Unicode, Arial, Sans-serif">Created by Firza Alamsyah</text><text x="0" y="52" fill="#000000" font-size="5px" font-weight="bold" font-family="'Helvetica Neue', Helvetica, Arial-Unicode, Arial, Sans-serif">from the Noun Project</text></svg>